# xmcd
#
# Track frame offsets:
#	150
#	9632
#	24232
#	42481
#	57410
#	71214
#	84382
#	105367
#	118796
#	137175
#	168213
#
# Disc length: 2469 seconds
#
# Revision: 1
# Processed by: cddbd v1.4PL0 Copyright (c) Steve Scherf et al.
# Submitted via: audiograbber 1.81.02
#
DISCID=8f09a30b
DTITLE=Divokej Bill - mezi nima
DYEAR=1900
DGENRE=
TTITLE0=Bagdad
TTITLE1=Pocit
TTITLE2=Znameni
TTITLE3=Malovani
TTITLE4=Kvuli holkam
TTITLE5=Vokna
TTITLE6=Armada
TTITLE7=Mrazik
TTITLE8=Kolem Tebe
TTITLE9=Kotle
TTITLE10=Na Tvy louce zeleny
EXTD=
EXTT0=
EXTT1=
EXTT2=
EXTT3=
EXTT4=
EXTT5=
EXTT6=
EXTT7=
EXTT8=
EXTT9=
EXTT10=
PLAYORDER=
